<?xml version="1.0" encoding="UTF-8"?>
<svg width="900px" height="210px" viewBox="0 0 900 210" version="1.1" xmlns="http://www.w3.org/2000/svg" xmlns:xlink="http://www.w3.org/1999/xlink">
    <!-- Generator: Sketch 57.1 (83088) - https://sketch.com -->
    <title>Release</title>
    <desc>Created with Sketch.</desc>
    <defs>
        <linearGradient x1="30.6693412%" y1="50%" x2="100%" y2="50%" id="linearGradient-1">
            <stop stop-color="#E0E4E8" offset="0%"></stop>
            <stop stop-color="#00EBFF" offset="100%"></stop>
        </linearGradient>
        <linearGradient x1="46.7058166%" y1="50%" x2="100%" y2="50%" id="linearGradient-2">
            <stop stop-color="#E0E4E8" offset="0%"></stop>
            <stop stop-color="#00EBFF" offset="100%"></stop>
        </linearGradient>
        <linearGradient x1="30.6693412%" y1="50%" x2="100%" y2="50%" id="linearGradient-3">
            <stop stop-color="#E0E4E8" offset="0%"></stop>
            <stop stop-color="#00EBFF" offset="100%"></stop>
        </linearGradient>
        <linearGradient x1="30.6693412%" y1="50%" x2="100%" y2="50%" id="linearGradient-4">
            <stop stop-color="#E0E4E8" offset="0%"></stop>
            <stop stop-color="#00EBFF" offset="100%"></stop>
        </linearGradient>
        <linearGradient x1="30.6693412%" y1="50%" x2="100%" y2="50%" id="linearGradient-5">
            <stop stop-color="#E0E4E8" offset="0%"></stop>
            <stop stop-color="#00EBFF" offset="100%"></stop>
        </linearGradient>
        <linearGradient x1="-1.11022302e-14%" y1="50%" x2="100%" y2="50%" id="linearGradient-6">
            <stop stop-color="#00F7FF" offset="0%"></stop>
            <stop stop-color="#00EBFF" offset="100%"></stop>
        </linearGradient>
        <linearGradient x1="30.6693412%" y1="50%" x2="100%" y2="50%" id="linearGradient-7">
            <stop stop-color="#E0E4E8" offset="0%"></stop>
            <stop stop-color="#00EBFF" offset="100%"></stop>
        </linearGradient>
        <linearGradient x1="35.6944191%" y1="50%" x2="100%" y2="50%" id="linearGradient-8">
            <stop stop-color="#E0E4E8" offset="0%"></stop>
            <stop stop-color="#00EBFF" offset="100%"></stop>
        </linearGradient>
        <linearGradient x1="29.1626391%" y1="50%" x2="100%" y2="50%" id="linearGradient-9">
            <stop stop-color="#E0E4E8" offset="0%"></stop>
            <stop stop-color="#00EBFF" offset="100%"></stop>
        </linearGradient>
        <linearGradient x1="34.5898681%" y1="50%" x2="100%" y2="50%" id="linearGradient-10">
            <stop stop-color="#E0E4E8" offset="0%"></stop>
            <stop stop-color="#00EBFF" offset="100%"></stop>
        </linearGradient>
        <polygon id="path-11" points="6.39531784 0.0110872052 9.6309378 5.36620734 3.15969789 5.36620734"></polygon>
    </defs>
    <g id="Release-(light)" stroke="none" stroke-width="1" fill="none" fill-rule="evenodd">
        <g id="Custom-Preset" transform="translate(0.000000, -16.000000)">
            <g id="Release">
                <g id="Lines-(out)" transform="translate(744.500000, 124.500000) scale(-1, 1) translate(-744.500000, -124.500000) translate(523.500000, -22.000000)" fill-rule="nonzero">
                    <polygon id="Line" fill="#00EBFF" points="444.5 143 290.5 143 290.5 150 444.5 150"></polygon>
                    <path d="M5.55728462,94.3966622 C42.4072796,112.590871 78.981655,125.784367 115.279874,133.975471 C151.589277,142.169099 213.148786,146.339798 299.998155,146.499998 L300.998154,146.501843 L301.001843,144.501846 L300.001845,144.500002 C213.289496,144.340054 151.849004,140.177419 115.720126,132.024529 C79.5800635,123.869114 43.154439,110.729277 6.44271538,92.6033378 L5.54605318,92.1606224 L4.66062243,93.9539468 L5.55728462,94.3966622 Z" id="Line-7" fill="url(#linearGradient-1)"></path>
                    <path d="M11.8190563,45.7323357 C49.8987872,81.1398048 86.3264017,106.204677 121.11036,120.920967 C155.922236,135.649069 215.6932,143.996969 300.476385,145.999721 L301.476106,146.023337 L301.523337,144.023894 L300.523615,144.000279 C215.973467,142.003031 156.411097,133.684265 121.88964,119.079033 C87.340265,104.461989 51.1012128,79.5268618 13.1809437,44.2676643 L12.448608,43.5867205 L11.0867205,45.051392 L11.8190563,45.7323357 Z" id="Line-7" fill="url(#linearGradient-2)"></path>
                    <path d="M38.6328876,0.498112506 C68.5056735,52.5005477 103.299377,89.3015803 143.022685,110.878732 C182.725781,132.444905 234.8798,143.811807 299.481613,144.999831 L300.481444,145.018218 L300.518218,143.018556 L299.518387,143.000169 C235.214183,141.817618 183.368201,130.517853 143.977315,109.121268 C104.606641,87.7356614 70.0670108,51.2033607 40.3671124,-0.498112506 L39.8689999,-1.36522492 L38.1347751,-0.368999903 L38.6328876,0.498112506 Z" id="Line-7" fill="url(#linearGradient-3)"></path>
                    <polygon id="Line-8" fill="url(#linearGradient-4)" points="4.99661593 146.496604 301.996604 147.503384 302.003384 145.503396 5.00339556 144.496616"></polygon>
                    <path d="M-0.442715377,148.396662 C36.4072796,166.590871 72.981655,179.784367 109.279874,187.975471 C145.589277,196.169099 207.148786,200.339798 293.998155,200.499998 L294.998154,200.501843 L295.001843,198.501846 L294.001845,198.500002 C207.289496,198.340054 145.849004,194.177419 109.720126,186.024529 C73.5800635,177.869114 37.154439,164.729277 0.442715377,146.603338 L-0.45394682,146.160622 L-1.33937757,147.953947 L-0.442715377,148.396662 Z" id="Line-7-Copy-3" fill="url(#linearGradient-1)" transform="translate(146.831233, 173.331233) scale(1, -1) translate(-146.831233, -173.331233) "></path>
                    <path d="M5.81905625,148.732336 C43.8987872,184.139805 80.3264017,209.204677 115.11036,223.920967 C149.922236,238.649069 209.6932,246.996969 294.476385,248.999721 L295.476106,249.023337 L295.523337,247.023894 L294.523615,247.000279 C209.973467,245.003031 150.411097,236.684265 115.88964,222.079033 C81.340265,207.461989 45.1012128,182.526862 7.18094375,147.267664 L6.44860802,146.586721 L5.08672053,148.051392 L5.81905625,148.732336 Z" id="Line-7-Copy-2" fill="url(#linearGradient-5)" transform="translate(150.305029, 197.805029) scale(1, -1) translate(-150.305029, -197.805029) "></path>
                    <path d="M33.6328876,149.498113 C63.5056735,201.500548 98.299377,238.30158 138.022685,259.878732 C177.725781,281.444905 229.8798,292.811807 294.481613,293.999831 L295.481444,294.018218 L295.518218,292.018556 L294.518387,292.000169 C230.214183,290.817618 178.368201,279.517853 138.977315,258.121268 C99.6066405,236.735661 65.0670108,200.203361 35.3671124,148.501887 L34.8689999,147.634775 L33.1347751,148.631 L33.6328876,149.498113 Z" id="Line-7-Copy" fill="url(#linearGradient-3)" transform="translate(164.326496, 220.826496) scale(1, -1) translate(-164.326496, -220.826496) "></path>
                </g>
                <g id="Lines-(in)" transform="translate(-66.500000, -22.000000)">
                    <polygon id="Line" fill="url(#linearGradient-6)" fill-rule="nonzero" points="444.5 143 290.5 143 290.5 150 444.5 150"></polygon>
                    <path d="M5.55728462,94.3966622 C42.4072796,112.590871 78.981655,125.784367 115.279874,133.975471 C151.589277,142.169099 213.148786,146.339798 299.998155,146.499998 L300.998154,146.501843 L301.001843,144.501846 L300.001845,144.500002 C213.289496,144.340054 151.849004,140.177419 115.720126,132.024529 C79.5800635,123.869114 43.154439,110.729277 6.44271538,92.6033378 L5.54605318,92.1606224 L4.66062243,93.9539468 L5.55728462,94.3966622 Z" id="Line-7" fill="url(#linearGradient-7)" fill-rule="nonzero"></path>
                    <path d="M11.8190563,45.7323357 C49.8987872,81.1398048 86.3264017,106.204677 121.11036,120.920967 C155.922236,135.649069 215.6932,143.996969 300.476385,145.999721 L301.476106,146.023337 L301.523337,144.023894 L300.523615,144.000279 C215.973467,142.003031 156.411097,133.684265 121.88964,119.079033 C87.340265,104.461989 51.1012128,79.5268618 13.1809437,44.2676643 L12.448608,43.5867205 L11.0867205,45.051392 L11.8190563,45.7323357 Z" id="Line-7" fill="url(#linearGradient-8)" fill-rule="nonzero"></path>
                    <path d="M38.6328876,0.498112506 C68.5056735,52.5005477 103.299377,89.3015803 143.022685,110.878732 C182.725781,132.444905 234.8798,143.811807 299.481613,144.999831 L300.481444,145.018218 L300.518218,143.018556 L299.518387,143.000169 C235.214183,141.817618 183.368201,130.517853 143.977315,109.121268 C104.606641,87.7356614 70.0670108,51.2033607 40.3671124,-0.498112506 L39.8689999,-1.36522492 L38.1347751,-0.368999903 L38.6328876,0.498112506 Z" id="Line-7" fill="url(#linearGradient-9)" fill-rule="nonzero"></path>
                    <polygon id="Line-8" fill="url(#linearGradient-4)" fill-rule="nonzero" points="4.99661593 146.496604 301.996604 147.503384 302.003384 145.503396 5.00339556 144.496616"></polygon>
                    <path d="M-0.442715377,148.396662 C36.4072796,166.590871 72.981655,179.784367 109.279874,187.975471 C145.589277,196.169099 207.148786,200.339798 293.998155,200.499998 L294.998154,200.501843 L295.001843,198.501846 L294.001845,198.500002 C207.289496,198.340054 145.849004,194.177419 109.720126,186.024529 C73.5800635,177.869114 37.154439,164.729277 0.442715377,146.603338 L-0.45394682,146.160622 L-1.33937757,147.953947 L-0.442715377,148.396662 Z" id="Line-7-Copy-3" fill="url(#linearGradient-1)" fill-rule="nonzero" transform="translate(146.831233, 173.331233) scale(1, -1) translate(-146.831233, -173.331233) "></path>
                    <path d="M5.81905625,148.732336 C43.8987872,184.139805 80.3264017,209.204677 115.11036,223.920967 C149.922236,238.649069 209.6932,246.996969 294.476385,248.999721 L295.476106,249.023337 L295.523337,247.023894 L294.523615,247.000279 C209.973467,245.003031 150.411097,236.684265 115.88964,222.079033 C81.340265,207.461989 45.1012128,182.526862 7.18094375,147.267664 L6.44860802,146.586721 L5.08672053,148.051392 L5.81905625,148.732336 Z" id="Line-7-Copy-2" fill="url(#linearGradient-5)" fill-rule="nonzero" transform="translate(150.305029, 197.805029) scale(1, -1) translate(-150.305029, -197.805029) "></path>
                    <path d="M33.6328876,149.498113 C63.5056735,201.500548 98.299377,238.30158 138.022685,259.878732 C177.725781,281.444905 229.8798,292.811807 294.481613,293.999831 L295.481444,294.018218 L295.518218,292.018556 L294.518387,292.000169 C230.214183,290.817618 178.368201,279.517853 138.977315,258.121268 C99.6066405,236.735661 65.0670108,200.203361 35.3671124,148.501887 L34.8689999,147.634775 L33.1347751,148.631 L33.6328876,149.498113 Z" id="Line-7-Copy" fill="url(#linearGradient-10)" fill-rule="nonzero" transform="translate(164.326496, 220.826496) scale(1, -1) translate(-164.326496, -220.826496) "></path>
                    <polygon id="Triangle" fill="#00EBFF" transform="translate(443.500000, 146.000000) rotate(90.000000) translate(-443.500000, -146.000000) " points="443.5 139 453 153 434 153"></polygon>
                </g>
                <g id="Box" transform="translate(389.000000, 74.000000)">
                    <polygon id="Stroke-1" stroke-opacity="0.352190778" stroke="#FFFFFF" stroke-linecap="round" stroke-linejoin="round" points="-4.26325641e-14 64.5665634 61.0440999 90 122.086957 64.5665634 61.0440999 39.1304348"></polygon>
                    <polygon id="Stroke-7" stroke-opacity="0.352190778" stroke="#FFFFFF" stroke-linecap="round" stroke-linejoin="round" points="60.2608696 1.56521739 122.086957 26.7716012 121.786824 64.173913 60.388426 39.2402113"></polygon>
                    <polygon id="Stroke-9" stroke-opacity="0.352190778" stroke="#FFFFFF" stroke-linecap="round" stroke-linejoin="round" points="0.782608696 26.4486004 0.782608696 64.173913 61.826087 39.2060842 61.6988148 1.56521739"></polygon>
                    <polygon id="Fill-11" fill-opacity="0.6" fill="#E6E6E6" points="0.126286605 64.3722076 -4.26325641e-14 25.6443392 60.9147154 7.10542736e-15 122.086957 25.9021814 121.886186 64.2817875 60.9147154 90"></polygon>
                    <polygon id="Stroke-13" stroke-opacity="0.352190778" stroke="#FFFFFF" stroke-linecap="round" stroke-linejoin="round" points="0.126286605 64.3722128 -4.26325641e-14 25.6443522 60.9147154 7.10542736e-15 122.086957 25.9021943 121.886136 64.2817926 60.9147154 90"></polygon>
                    <g id="Vector" transform="translate(21.130435, 19.565217)">
                        <polygon id="Fill-21" fill="#001B3D" points="0 39.3030676 39.5694222 54.8875928 79.137931 39.3030676 39.5694222 23.7168611"></polygon>
                        <polygon id="Fill-22" fill="#001B3D" points="0 15.5853659 0 39.2469312 40.6011994 54.8875928 40.6011994 31.4279428"></polygon>
                        <polygon id="Fill-23" fill="#001B3D" points="40.6011994 31.3061243 79.826087 15.5853659 79.6330593 39.166793 40.6011994 54.8875928"></polygon>
                        <polygon id="Fill-24" fill="#001B3D" points="39.9130435 0 79.826087 15.8230925 79.6322828 39.3022269 39.9953965 23.6502703"></polygon>
                        <polygon id="Fill-25" fill="#001B3D" points="0 15.6203871 0 39.3022269 39.9130435 23.62887 39.8304836 0"></polygon>
                        <polygon id="Fill-26" fill="#00EBFF" points="0.0825787106 39.258183 0 15.6394958 39.8289049 0 79.826087 15.7968007 79.6947868 39.2030337 39.8289049 54.8875928"></polygon>
                        <polygon id="Fill-21-Copy" fill-opacity="0.30736451" fill="#FFFFFF" points="0 15.5862065 39.5694222 31.1707317 79.137931 15.5862065 39.5694222 0"></polygon>
                    </g>
                    <polygon id="Stroke-3" stroke-opacity="0.352190778" stroke="#FFFFFF" stroke-linecap="round" stroke-linejoin="round" points="0.782608696 27.3913043 0.782608696 65.0843125 61.826087 90 61.826087 52.628666"></polygon>
                    <polygon id="Stroke-5" stroke-opacity="0.352190778" stroke="#FFFFFF" stroke-linecap="round" stroke-linejoin="round" points="60.2608696 52.4346059 122.086957 27.3913043 121.785733 64.9566984 60.2608696 90"></polygon>
                    <g id="Logo" transform="translate(65.000000, 50.000000)">
                        <g id="Group-15" transform="translate(3.510346, 0.000000)">
                            <polygon id="Triangle" fill="#FFFFFF" transform="translate(7.944954, 9.169031) scale(1, -1) translate(-7.944954, -9.169031) " points="7.94495427 3.90260877 14.3090101 14.4354538 1.58089845 14.4354538"></polygon>
                            <polygon id="Triangle" fill="#00EBFF" transform="translate(6.437678, 5.295294) scale(1, -1) translate(-6.437678, -5.295294) " points="6.43767789 0.0288710825 12.8017337 10.5617161 0.0736220772 10.5617161"></polygon>
                        </g>
                        <g id="Symbol" transform="translate(0.000000, 3.658690)">
                            <polygon id="Triangle" fill="#FFFFFF" transform="translate(6.330561, 5.482623) scale(1, -1) translate(-6.330561, -5.482623) " points="6.33056078 0.243918515 12.6611216 10.7213275 0 10.7213275"></polygon>
                            <mask id="mask-12" fill="white">
                                <use xlink:href="#path-11"></use>
                            </mask>
                            <use id="Mask" fill="#00EBFF" transform="translate(6.395318, 2.688647) scale(1, -1) translate(-6.395318, -2.688647) " xlink:href="#path-11"></use>
                        </g>
                    </g>
                </g>
                <text id="45-new-features,-3-e" font-family="Helvetica-Bold, Helvetica" font-size="20" font-weight="bold" fill="#000000">
                    <tspan x="232.751953" y="197">9 new features, 43 enhancements, 12 bug fixes </tspan>
                </text>
                <text id="+1,232,--4343" font-family="Helvetica" font-size="15" font-weight="normal" fill="#000000">
                    <tspan x="352.002197" y="220">2019-09-17, +22,870, -7,246</tspan>
                </text>
                <text id="v2.1.1" font-family="Arial-BoldMT, Arial" font-size="30" font-weight="bold" fill="#000000">
                    <tspan x="408.295898" y="54">v0.4.0</tspan>
                </text>
            </g>
        </g>
    </g>
</svg>



